<svg xmlns="http://www.w3.org/2000/svg" width="34.868" height="34.875" viewBox="0 0 34.868 34.875">
  <path id="Icon_awesome-globe" data-name="Icon awesome-globe" d="M23.66,11.25C22.641,4.971,20.236.563,17.438.563s-5.2,4.409-6.223,10.688ZM10.688,18a44.071,44.071,0,0,0,.232,4.5H23.948A44.071,44.071,0,0,0,24.18,18a44.071,44.071,0,0,0-.232-4.5H10.92A44.071,44.071,0,0,0,10.688,18Zm22.83-6.75A17.474,17.474,0,0,0,22.409,1.294c1.716,2.377,2.9,5.955,3.516,9.956ZM12.459,1.294a17.463,17.463,0,0,0-11.1,9.956H8.951c.612-4,1.793-7.58,3.509-9.956ZM34.27,13.5H26.205c.148,1.477.232,2.988.232,4.5s-.084,3.023-.232,4.5h8.058a17.287,17.287,0,0,0,.6-4.5A17.589,17.589,0,0,0,34.27,13.5ZM8.438,18c0-1.512.084-3.023.232-4.5H.6a17.047,17.047,0,0,0,0,9H8.663C8.522,21.023,8.438,19.512,8.438,18Zm2.777,6.75c1.02,6.279,3.424,10.688,6.223,10.688s5.2-4.409,6.223-10.687Zm11.2,9.956A17.491,17.491,0,0,0,33.525,24.75H25.931c-.619,4-1.8,7.58-3.516,9.956ZM1.357,24.75a17.474,17.474,0,0,0,11.109,9.956c-1.716-2.377-2.9-5.955-3.516-9.956H1.357Z" transform="translate(0 -0.563)" fill="#fff"/>
</svg>
